HIERARCHY
ROOT Hips
{
	OFFSET 49.248501 -33.688217 84.278091
	CHANNELS 6 Xposition Yposition Zposition Xrotation Yrotation Zrotation
	JOINT spine
	{
		OFFSET 0.000000 -0.359108 6.244797
		CHANNELS 3 Xrotation Yrotation Zrotation
		JOINT spine1
		{
			OFFSET 0.000000 0.000000 9.069412
			CHANNELS 3 Xrotation Yrotation Zrotation
			JOINT spine2
			{
				OFFSET 0.000000 -0.000004 8.690140
				CHANNELS 3 Xrotation Yrotation Zrotation
				JOINT Neck
				{
					OFFSET 0.000000 -1.063725 22.311203
					CHANNELS 3 Xrotation Yrotation Zrotation
					JOINT Head
					{
						OFFSET 0.000000 0.000000 6.740814
						CHANNELS 3 Xrotation Yrotation Zrotation
						End Site
						{
							OFFSET 0.000000 5.380968 16.316498
						}
					}
				}
				JOINT RightShoulder
				{
					OFFSET -3.659161 0.509514 9.384682
					CHANNELS 3 Xrotation Yrotation Zrotation
					JOINT RightArm
					{
						OFFSET 0.000000 -0.000004 12.308907
						CHANNELS 3 Xrotation Yrotation Zrotation
						JOINT RightArmRoll
						{
							OFFSET 0.000000 0.000000 6.213745
							CHANNELS 3 Xrotation Yrotation Zrotation
							JOINT RightForeArm
							{
								OFFSET 0.000000 -0.000004 18.098495
								CHANNELS 3 Xrotation Yrotation Zrotation
								JOINT RightForeArmRoll
								{
									OFFSET 0.000000 0.000000 6.972794
									CHANNELS 3 Xrotation Yrotation Zrotation
									JOINT RightHand
									{
										OFFSET 0.000000 0.000000 13.992905
										CHANNELS 3 Xrotation Yrotation Zrotation
										End Site
										{
											OFFSET 0.000000 0.000000 0.100006
										}
									}
								}
							}
						}
					}
				}
				JOINT LeftShoulder
				{
					OFFSET 3.659161 0.509514 9.384682
					CHANNELS 3 Xrotation Yrotation Zrotation
					JOINT LeftArm
					{
						OFFSET 0.000000 -0.000004 12.308907
						CHANNELS 3 Xrotation Yrotation Zrotation
						JOINT LeftArmRoll
						{
							OFFSET 0.000000 0.000000 6.213745
							CHANNELS 3 Xrotation Yrotation Zrotation
							JOINT LeftForeArm
							{
								OFFSET 0.000000 -0.000004 18.098495
								CHANNELS 3 Xrotation Yrotation Zrotation
								JOINT LeftForeArmRoll
								{
									OFFSET 0.000000 0.000000 6.972794
									CHANNELS 3 Xrotation Yrotation Zrotation
									JOINT LeftHand
									{
										OFFSET 0.000000 0.000000 13.992905
										CHANNELS 3 Xrotation Yrotation Zrotation
										End Site
										{
											OFFSET 0.000000 0.000000 0.100006
										}
									}
								}
							}
						}
					}
				}
			}
		}
	}
	JOINT RightUpLeg
	{
		OFFSET -5.535149 0.851456 -1.014999
		CHANNELS 3 Xrotation Yrotation Zrotation
		JOINT RightUpLegRoll
		{
			OFFSET 0.000000 0.000000 16.407501
			CHANNELS 3 Xrotation Yrotation Zrotation
			JOINT RightLeg
			{
				OFFSET 0.000000 0.000004 -20.318100
				CHANNELS 3 Xrotation Yrotation Zrotation
				JOINT RightLegRoll
				{
					OFFSET 0.000000 -0.000004 20.384598
					CHANNELS 3 Xrotation Yrotation Zrotation
					JOINT RightFoot
					{
						OFFSET 0.000000 -0.000004 16.966805
						CHANNELS 3 Xrotation Yrotation Zrotation
						JOINT RightToeBase
						{
							OFFSET 0.000000 -0.000004 14.183403
							CHANNELS 3 Xrotation Yrotation Zrotation
							End Site
							{
								OFFSET 0.006012 0.791744 6.868896
							}
						}
					}
				}
			}
		}
	}
	JOINT LeftUpLeg
	{
		OFFSET 5.535149 0.851456 -1.014999
		CHANNELS 3 Xrotation Yrotation Zrotation
		JOINT LeftUpLegRoll
		{
			OFFSET 0.000000 0.000000 16.407600
			CHANNELS 3 Xrotation Yrotation Zrotation
			JOINT LeftLeg
			{
				OFFSET 0.000000 -0.000004 20.318100
				CHANNELS 3 Xrotation Yrotation Zrotation
				JOINT LeftLegRoll
				{
					OFFSET 0.000000 -0.000004 20.573112
					CHANNELS 3 Xrotation Yrotation Zrotation
					JOINT LeftFoot
					{
						OFFSET 0.000000 -0.000004 16.778305
						CHANNELS 3 Xrotation Yrotation Zrotation
						JOINT LeftToeBase
						{
							OFFSET 0.000000 0.000000 14.183395
							CHANNELS 3 Xrotation Yrotation Zrotation
							End Site
							{
								OFFSET -0.026943 0.791740 6.868896
							}
						}
					}
				}
			}
		}
	}
}
MOTION
Frames: 4
Frame Time: 0.041667
48.507900 5.378036 49.334099 1.915597 3.626627 0.714033 0.710289 0.333330 0.623523 5.419817 0.691612 1.260754 7.064800 0.706512 1.252462 8.407369 -26.649733 -5.478033 6.000941 20.568626 -4.621842 -31.513759 -83.751745 -35.308058 100.293787 -46.564921 80.477496 -0.000001 -0.000000 0.000001 52.207446 -15.318878 5.914747 0.000012 0.000008 -2.999989 -5.000248 -7.998752 0.000116 -8.474523 46.556649 9.041226 -46.633018 146.400611 60.103704 -0.000001 0.000010 -0.000002 46.651582 9.759658 -2.511649 0.000008 -0.000003 3.000000 -5.000033 7.998826 -0.000100 -89.557700 175.480660 0.470946 -179.999991 0.000005 -0.737997 98.120503 0.518109 -0.495779 -0.000002 0.000001 0.929269 63.262551 5.497807 5.613640 25.462105 -7.355619 0.000000 88.623351 -0.080376 -174.502167 -0.000005 -0.000004 -0.962842 -87.188642 -4.051665 -2.548739 0.000001 0.000003 -1.372630 66.455056 -6.467855 -3.325834 25.456883 7.346201 0.000002 
48.503899 5.389534 49.339500 1.912535 3.623626 0.709984 0.714024 0.332683 0.623188 5.427305 0.689708 1.258504 7.072278 0.704595 1.250226 8.388903 -26.617343 -5.479181 6.039967 20.548855 -4.627571 -31.414489 -83.719063 -35.207849 100.342856 -46.549030 80.514946 -0.000001 0.000001 -0.000000 52.209010 -15.318361 5.914360 0.000012 0.000005 -2.999989 -5.000250 -7.998753 0.000116 -8.508833 46.562697 9.085432 -46.627031 146.411512 60.109906 0.000001 0.000010 -0.000002 46.659030 9.761529 -2.512609 0.000013 -0.000004 3.000000 -5.000031 7.998827 -0.000100 -89.553479 175.476357 0.469463 -179.999991 0.000005 -0.737997 98.121418 0.521004 -0.493994 -0.000001 0.000001 0.929269 63.262243 5.497775 5.614548 25.462103 -7.355619 0.000000 88.627865 -0.075225 -174.504612 -0.000005 -0.000004 -0.962842 -87.189489 -4.050791 -2.547687 0.000001 0.000003 -1.372720 66.456839 -6.468292 -3.324622 25.456883 7.346200 0.000002 
48.502701 5.383476 49.337502 1.909413 3.620783 0.706031 0.717740 0.332051 0.622918 5.434743 0.687815 1.256333 7.079716 0.702691 1.248060 8.370249 -26.586245 -5.480496 6.079034 20.530268 -4.633422 -31.320570 -83.687009 -35.113074 100.390967 -46.533280 80.551392 0.000002 0.000000 0.000001 52.210659 -15.317749 5.914021 0.000012 0.000006 -2.999990 -5.000249 -7.998749 0.000117 -8.542735 46.567069 9.129023 -46.620341 146.423000 60.115821 -0.000002 0.000012 0.000001 46.666274 9.763365 -2.513540 0.000011 -0.000000 3.000001 -5.000030 7.998826 -0.000101 -89.549169 175.472054 0.467974 -179.999991 0.000005 -0.737997 98.122436 0.523905 -0.491200 -0.000001 0.000001 0.929269 63.261936 5.497784 5.615565 25.462107 -7.355619 0.000000 88.632394 -0.070083 -174.506907 -0.000005 -0.000004 -0.962842 -87.190322 -4.050029 -2.546736 0.000001 0.000002 -1.372810 66.458629 -6.468770 -3.323414 25.456883 7.346199 0.000002 
48.511002 5.388313 49.338097 1.906251 3.618062 0.702144 0.721437 0.331430 0.622695 5.442150 0.685934 1.254213 7.087134 0.700797 1.245953 8.351449 -26.556052 -5.481929 6.118133 20.512561 -4.639352 -31.231371 -83.655515 -35.023103 100.438396 -46.517577 80.587025 -0.000001 0.000000 0.000001 52.212449 -15.317227 5.913767 0.000013 0.000007 -2.999991 -5.000250 -7.998748 0.000116 -8.576384 46.570439 9.172235 -46.612868 146.435021 60.121094 0.000001 0.000011 -0.000000 46.673514 9.765127 -2.514469 0.000010 -0.000002 3.000000 -5.000029 7.998823 -0.000099 -89.544818 175.467765 0.466585 -179.999991 0.000005 -0.737997 98.123454 0.526809 -0.489417 -0.000001 0.000001 0.929268 63.261724 5.497779 5.616575 25.462107 -7.355619 -0.000000 88.636949 -0.064949 -174.510213 -0.000005 -0.000004 -0.962842 -87.191176 -4.049281 -2.545687 0.000001 0.000002 -1.372900 66.460418 -6.469288 -3.322119 25.456882 7.346201 0.000002 
